<svg width="20" height="20" viewBox="0 0 20 20" fill="none" xmlns="http://www.w3.org/2000/svg">
<circle cx="10" cy="10" r="9.5" stroke="#F5F5F5"/>
<path d="M10.3004 14.11C9.11035 14.11 8.24035 13.61 7.85035 12.94L8.60035 12.41C8.95035 12.96 9.48035 13.26 10.2904 13.26C11.3504 13.26 11.9604 12.74 11.9604 11.96C11.9604 11.19 11.3204 10.66 10.3104 10.66H9.60035V9.82H10.3104C11.2204 9.82 11.8104 9.32 11.8104 8.61C11.8104 7.89 11.2504 7.4 10.2904 7.4C9.54035 7.4 9.05035 7.69 8.75035 8.18L8.02035 7.66C8.40035 7.04 9.21035 6.55 10.3204 6.55C11.8404 6.55 12.8004 7.39 12.8004 8.55C12.8004 9.33 12.3604 9.9 11.6204 10.18V10.2C12.4904 10.51 12.9504 11.14 12.9504 11.99C12.9504 13.22 11.9404 14.11 10.3004 14.11Z" fill="white"/>
</svg>
