<svg width="25" height="18" viewBox="0 0 25 18" fill="none" xmlns="http://www.w3.org/2000/svg">
<path d="M5.53131e-05 8.65363C0.0076046 8.35834 0.0965424 8.18036 0.210392 8.05267L6.46038 0.360345C6.75562 -0.0558803 7.42461 -0.121747 7.84288 0.216238C8.26114 0.554223 8.28336 1.18618 7.94778 1.56227L2.97481 7.69209H24.0385C24.5695 7.69209 25 8.12257 25 8.65363C25 9.18469 24.5695 9.61517 24.0385 9.61517H2.97481L7.94778 15.745C8.32841 16.1248 8.22023 16.7911 7.81845 17.1485C7.50913 17.4236 6.6848 17.3359 6.46038 16.9469L0.210392 9.25459C0.0476284 9.05536 -0.00192451 8.90719 5.53131e-05 8.65363Z" fill="white"/>
</svg>
