<svg width="451" height="432" viewBox="0 0 451 432" fill="none" xmlns="http://www.w3.org/2000/svg">
<path d="M196.822 280.028V161.483H236.326C250.268 161.483 287.739 169.208 287.739 224.618C287.739 264.311 258.111 278.696 237.778 280.028H196.822Z" fill="#BAFF29"/>
<path fill-rule="evenodd" clip-rule="evenodd" d="M146.474 191.932C126.672 207.068 101.053 216.196 73.0732 216.196C64.9892 216.196 57.1021 215.434 49.4954 213.985V421.371H238.28C359.18 421.371 435.469 323.324 435.469 217.108C435.469 112.058 359.18 12.8448 238.28 12.8448H94.5181C139.981 20.6815 175.832 52.9678 184.639 93.9663H225.349C285.476 93.9663 336.551 134.235 338.491 217.108C340.43 299.98 285.476 340.249 225.349 340.249H146.474V191.932ZM51.6284 12.8448H49.4954V13.2319C50.204 13.0969 50.9152 12.9679 51.6284 12.8448Z" fill="#009AFF"/>
<path d="M73.0732 170.601C107.943 170.601 136.21 145.085 136.21 113.608C136.21 82.132 107.943 56.6154 73.0732 56.6154C38.2037 56.6154 9.93628 82.132 9.93628 113.608C9.93628 145.085 38.2037 170.601 73.0732 170.601Z" fill="#BAFF29"/>
<path d="M227.127 161.483C189.144 157.673 148.838 143.245 118.532 111.329L75.5988 154.643C215.005 178.352 196.822 191.119 196.822 245.832C227.127 232.154 295.315 168.322 227.127 161.483Z" fill="#BAFF29"/>
</svg>
