<svg width="206" height="198" viewBox="0 0 206 198" fill="none" xmlns="http://www.w3.org/2000/svg">
<path d="M90.4711 129.343V71.9554H109.595C116.345 71.9554 134.484 75.6954 134.484 102.519C134.484 121.734 120.141 128.698 110.298 129.343H90.4711Z" fill="#BAFF29"/>
<path fill-rule="evenodd" clip-rule="evenodd" d="M66.0976 86.6959C56.5116 94.0234 44.1098 98.442 30.5645 98.442C26.651 98.442 22.8329 98.0732 19.1505 97.3718V197.767H110.541C169.068 197.767 206 150.303 206 98.8835C206 48.0291 169.068 0 110.541 0H40.946C62.9544 3.79377 80.3101 19.4235 84.5733 39.2709H104.281C133.389 39.2709 158.114 58.765 159.053 98.8835C159.992 139.002 133.389 158.496 104.281 158.496H66.0976V86.6959ZM20.1831 0H19.1505V0.187393C19.4936 0.122059 19.8378 0.059595 20.1831 0Z" fill="#151515"/>
<path d="M30.5645 76.3698C47.4449 76.3698 61.1291 64.0173 61.1291 48.7796C61.1291 33.5419 47.4449 21.1893 30.5645 21.1893C13.6842 21.1893 0 33.5419 0 48.7796C0 64.0173 13.6842 76.3698 30.5645 76.3698Z" fill="#BAFF29"/>
<path d="M105.142 71.9555C86.7542 70.1111 67.2421 63.1266 52.5711 47.676L31.7872 68.6446C99.2737 80.1222 90.4711 86.3024 90.4711 112.789C105.142 106.167 138.152 75.2663 105.142 71.9555Z" fill="#BAFF29"/>
</svg>
