<svg width="25" height="18" viewBox="0 0 25 18" fill="none" xmlns="http://www.w3.org/2000/svg">
<path d="M24.9999 8.65363C24.9924 8.35834 24.9035 8.18036 24.7896 8.05267L18.5396 0.360345C18.2444 -0.0558803 17.5754 -0.121747 17.1571 0.216238C16.7389 0.554223 16.7166 1.18618 17.0522 1.56227L22.0252 7.69209H0.961537C0.43048 7.69209 0 8.12257 0 8.65363C0 9.18469 0.43048 9.61517 0.961537 9.61517H22.0252L17.0522 15.745C16.6716 16.1248 16.7798 16.7911 17.1815 17.1485C17.4909 17.4236 18.3152 17.3359 18.5396 16.9469L24.7896 9.25459C24.9524 9.05536 25.0019 8.90719 24.9999 8.65363Z" fill="#BAFF29"/>
</svg>
